_________________________  Visit us at _________________________
  
http://p2pdl.com  ____________________________  http://p2pdl.com


We Were Soldiers 2002 BRRip 720p x264 AAC - PRiSTiNE [P2PDL]

Genre: Action | Drama | History | War
Plot: The story of the first major battle of the American 
phase of the Vietnam War and the soldiers on both sides 
that fought it.
Director: Randall Wallace
Stars: Mel Gibson, Madeleine Stowe, Greg Kinnear
Rated: Rated R for sustained sequences of graphic war violence, and for language

Info: 
http://www.imdb.com/title/tt0277434/

General
Complete name                  : We Were Soldiers 2002 BRRip 720p x264 AAC - PRiSTiNE.mp4
Format                         : MPEG-4
Format profile                 : Base Media
Codec ID                       : isom
File size                      : 777 MiB
Duration                       : 2h 18mn
Overall bit rate mode          : Variable
Overall bit rate               : 784 Kbps

Video
Format                         : AVC
Format/Info                    : Advanced Video Codec
Format profile                 : High 10@L4.1
Bit rate                       : 701 Kbps
Width                          : 1 264 pixels
Height                         : 528 pixels
Display aspect ratio           : 2.40:1
Frame rate mode                : Constant
Frame rate                     : 23.976 fps
Color space                    : YUV
Chroma subsampling             : 4:2:0
Bit depth                      : 10 bits
Stream size                    : 694 MiB (89%)
Writing library                : x264 core 130 r2273 b3065e6

Audio
Format                         : AAC
Format/Info                    : Advanced Audio Codec
Bit rate mode                  : Variable
Bit rate                       : 80.0 Kbps
Channel(s)                     : 2 channels
Channel positions              : Front: L R
Sampling rate                  : 48.0 KHz / 24.0 KHz
Stream size                    : 79.3 MiB (10%)
Language                       : English

Subtitle                       : Yes (English)
Source                         : 720p.BluRay.DTS.x264-HiDt (Thanks)

Screens:
 
http://www.ultraimg.com/images/0C2By.jpg 
http://www.ultraimg.com/images/t1Nbg.jpg 
http://www.ultraimg.com/images/lU1j.jpg 
http://www.ultraimg.com/images/2OU34.jpg

----------------------------------------------------------------------------------------------------


Encoded using revolutionary 10bit encoding, which enables us to provide you more crispier 
and sharper images at small sizes, just make sure you follow our instructions without a fault.
Recommend to you to use latest version of VLC player. Install K-Lite Codec Pack or shark007 codecs
in case of any kind of problem in playback (For non-VLC Media Player users). Alternatively, install
Core AVC codecs, the fastest decoder that there is coupled with Community Center Codec Pack and play
on Windows Media Player Classic. Check sample to be sure.
Enjoy!

Encoder Notes:Looking For Early Access To Anything You Can Provide DVDScr, R5, DVDR, BluRay, Direct
Audio, Music Releases and Seedboxes. We require dedicated servers, so as to do more 
and fast releases of movies.
If You Got anything to offer please contact us at "prg@hush.com".

Face book Fan Page:   
http://www.fb.me/p2pdl